<svg width="1400" height="900" viewBox="0 0 1400 900" fill="none" xmlns="http://www.w3.org/2000/svg">
  <rect width="1400" height="900" fill="#F7F4EE"/>
  <g transform="translate(444 138)">
    <path d="M190 118H224L256 92L288 118H322C359.555 118 390 148.445 390 186V326C390 363.555 359.555 394 322 394H190C152.445 394 122 363.555 122 326V186C122 148.445 152.445 118 190 118Z" stroke="#14171D" stroke-width="16" stroke-linejoin="round"/>
    <rect x="175" y="174" width="162" height="162" rx="40" stroke="#9F7B4E" stroke-width="12"/>
    <path d="M284 206C273.48 197.453 258.572 192 242 192C213.833 192 193 207.399 193 227.5C193 245.03 208.525 255.686 235.529 258.902C264.931 262.404 286 273.336 286 292.5C286 314.315 265.405 330 238 330C219.447 330 203.654 323.997 192 313.5" stroke="#14171D" stroke-width="11.5" stroke-linecap="round" stroke-linejoin="round"/>
    <path d="M249 262L309 206" stroke="#14171D" stroke-width="11.5" stroke-linecap="round"/>
    <path d="M249 262L311 314" stroke="#9F7B4E" stroke-width="11.5" stroke-linecap="round"/>
  </g>
  <text x="700" y="742" fill="#14171D" font-family="Sora, Avenir Next, Helvetica Neue, Arial, sans-serif" font-size="104" font-weight="560" letter-spacing="8" text-anchor="middle">SHOWKASA</text>
  <text x="700" y="808" fill="#69707D" font-family="Sora, Avenir Next, Helvetica Neue, Arial, sans-serif" font-size="26" font-weight="400" letter-spacing="15" text-anchor="middle">PORTAL HOUSE STUDY 01, SUBTLE ROOF PEAK</text>
</svg>
